<svg xmlns="http://www.w3.org/2000/svg" viewBox="180 264 848 272" fill="none" role="img" aria-label="mimo">
<title>mimo</title>
<path d="M312.384 353.724C325.692 338.106 340.906 329.379 361.734 328.367C381.401 327.261 400.663 334.254 415.041 347.716C443.01 373.519 439.652 402.154 439.422 436.48C439.248 462.567 439.839 488.839 439.248 514.941C439.175 518.142 437.975 519.076 436.02 521.16C429.927 523.806 378.272 523.935 371.128 521.843C370.299 521.6 368.918 521.034 368.286 520.445C360.928 513.596 370.803 418.949 363.717 406.452C362.086 403.577 360.436 403.022 357.469 402.33C346.26 405.406 349.124 421.608 349.161 430.47L349.06 469.839C348.952 476.846 350.982 518.661 346.762 519.957C334.456 523.736 290.695 524.192 278.857 521.678C277.203 520.202 275.42 518.501 275.409 516.02C275.211 488.302 275.203 460.548 275.563 432.818C275.686 423.331 278.04 408.424 269.865 402.795C251.933 398.451 259.415 435.128 258.278 446.647C256.497 464.701 261.267 502.922 256.222 519.654C254.802 524.363 194.134 523.419 187.599 520.891C182.602 518.957 183.466 500.109 183.748 496.293C188.361 433.831 162.176 346.466 247.404 329.062C252.329 328.53 257.282 328.322 262.234 328.437C284.509 328.956 297.836 338.419 312.384 353.724Z" fill="currentColor"/>
<path d="M724.534 328.245C742.26 327.981 759.496 334.049 773.145 345.361C810.276 376.489 798.462 422.301 800.141 464.698C800.558 475.235 802.675 513.849 796.523 521.109C791.83 523.288 739.549 523.576 733.22 522.349C729.717 521.67 728.173 520.495 727.068 517.085C721.771 500.775 730.843 413.585 724.128 405.349C722.386 403.216 720.53 402.6 717.913 402.231C714.608 403.189 713.075 404.312 711.803 407.587C705.203 424.633 715.202 510.951 708.466 519.579C706.798 521.72 703.691 522.476 701.105 522.738C692.033 523.654 681.7 522.356 672.462 522.449C663.984 522.535 654.402 524.218 646.071 523.199C643.996 522.946 641.869 522.257 640.315 520.804C634.059 514.964 636.53 495.58 636.655 487.564C636.707 462.143 636.947 436.63 636.395 411.214C636.269 404.998 632.735 402.038 626.531 402.726C610.15 412.234 630.608 508.917 615.061 521.947C613.299 523.418 554.905 523.247 550.281 520.966C544.516 513.049 548.126 448.16 547.345 433.15C545.707 401.65 547.262 368.886 572.792 346.397C587.356 333.521 606.49 327.058 625.884 328.472C645.946 329.864 660.752 338.888 673.713 353.704C689.458 336.371 701.147 330.126 724.534 328.245Z" fill="currentColor"/>
<path d="M910.511 325.785C966.734 322.289 1015.18 364.96 1018.79 421.165C1022.4 477.37 979.83 525.893 923.618 529.625C867.249 533.369 818.544 490.646 814.916 434.274C811.287 377.902 854.122 329.292 910.511 325.785ZM939.663 374.618C930.277 378.038 893.701 447.233 884.039 461.709C872.997 493.137 922.491 486.792 939.348 477.395C953.228 469.647 963.459 456.713 967.797 441.423C970.82 430.775 970.601 423.23 969.443 412.413C965.939 400.075 955.157 374.099 939.663 374.618Z" fill="currentColor"/>
<path d="M478.705 360.59C486.439 360.54 494.756 360.625 502.435 360.509C522.35 360.208 529.998 364.407 530.211 385.442L530.388 464.825C530.433 480.911 530.748 497.017 529.842 513.075C529.167 525.046 516.916 522.752 508.158 522.544C497.192 522.518 469.789 524.003 460.738 521.329C453.457 515.051 457.811 391.027 457.795 374.416C457.784 364.401 470.176 360.999 478.705 360.59Z" fill="currentColor"/>
<path d="M489.827 269.873C509.975 265.413 529.908 278.182 534.277 298.346C538.646 318.51 525.785 338.382 505.598 342.659C485.54 346.909 465.819 334.15 461.477 314.115C457.137 294.079 469.809 274.304 489.827 269.873Z" fill="currentColor"/>
</svg>
